<svg id="svg" version="1.1" xmlns="http://www.w3.org/2000/svg" xmlns:xlink="http://www.w3.org/1999/xlink" width="400" height="245.16129032258064" viewBox="0, 0, 400,245.16129032258064"><g id="svgg"><path id="path0" d="M298.167 188.833 C 297.662 189.011,297.025 189.161,296.750 189.167 C 296.475 189.172,296.104 189.287,295.926 189.422 C 295.749 189.557,295.439 189.667,295.239 189.667 C 294.879 189.667,293.333 190.274,292.474 190.753 C 292.231 190.889,291.912 191.000,291.766 191.000 C 291.620 191.000,291.500 191.066,291.500 191.146 C 291.500 191.226,290.855 191.614,290.067 192.008 C 289.279 192.402,288.596 192.824,288.549 192.946 C 288.502 193.067,288.330 193.167,288.167 193.167 C 288.003 193.167,287.826 193.279,287.773 193.417 C 287.720 193.554,287.602 193.667,287.511 193.667 C 287.131 193.667,283.841 196.890,282.820 198.263 C 282.416 198.806,281.991 199.310,281.876 199.383 C 281.761 199.457,281.667 199.625,281.667 199.758 C 281.667 199.891,281.591 200.000,281.498 200.000 C 281.406 200.000,281.087 200.506,280.790 201.125 C 280.493 201.744,280.194 202.275,280.125 202.306 C 280.056 202.336,280.000 202.496,280.000 202.660 C 280.000 202.825,279.887 203.053,279.750 203.167 C 279.612 203.281,279.500 203.466,279.500 203.579 C 279.500 203.692,279.327 204.114,279.116 204.517 C 278.594 205.514,278.167 206.686,278.167 207.119 C 278.167 207.315,278.071 207.575,277.954 207.696 C 277.837 207.818,277.717 208.217,277.688 208.583 C 277.658 208.950,277.552 209.400,277.451 209.583 C 277.293 209.870,277.018 212.142,277.002 213.292 C 276.999 213.498,276.903 213.668,276.790 213.669 C 276.662 213.671,276.646 213.718,276.750 213.794 C 276.842 213.862,276.917 214.629,276.917 215.500 C 276.917 216.371,276.842 217.140,276.750 217.208 C 276.644 217.288,276.667 217.388,276.813 217.481 C 276.939 217.563,276.998 217.702,276.943 217.791 C 276.888 217.880,276.916 218.207,277.005 218.517 C 277.094 218.828,277.176 219.532,277.187 220.083 C 277.198 220.633,277.311 221.286,277.437 221.533 C 277.563 221.781,277.667 222.244,277.667 222.562 C 277.667 222.880,277.772 223.352,277.900 223.611 C 278.028 223.871,278.222 224.383,278.330 224.750 C 278.656 225.850,279.219 227.167,279.364 227.167 C 279.439 227.167,279.500 227.345,279.500 227.563 C 279.500 227.781,279.612 228.053,279.750 228.167 C 279.887 228.281,280.000 228.515,280.000 228.687 C 280.000 228.859,280.075 229.000,280.167 229.000 C 280.258 229.000,280.333 229.111,280.333 229.247 C 280.333 229.548,281.261 231.092,281.787 231.665 C 281.996 231.893,282.167 232.133,282.167 232.198 C 282.167 232.263,282.335 232.502,282.542 232.728 C 283.253 233.510,283.500 233.838,283.500 234.002 C 283.500 234.093,283.612 234.167,283.750 234.167 C 283.887 234.167,284.000 234.242,284.000 234.334 C 284.000 234.600,285.610 236.124,287.167 237.332 C 287.579 237.652,287.942 237.971,287.972 238.040 C 288.003 238.110,288.136 238.167,288.269 238.167 C 288.402 238.167,288.554 238.279,288.606 238.417 C 288.659 238.554,288.766 238.667,288.843 238.667 C 288.920 238.667,289.317 238.892,289.724 239.167 C 290.132 239.442,290.536 239.667,290.624 239.667 C 290.858 239.667,291.812 240.163,291.923 240.344 C 291.976 240.430,292.195 240.500,292.409 240.500 C 292.623 240.500,292.841 240.612,292.894 240.750 C 292.946 240.887,293.175 241.000,293.402 241.000 C 293.628 241.000,293.860 241.075,293.917 241.167 C 293.973 241.258,294.135 241.333,294.276 241.333 C 294.417 241.333,294.769 241.440,295.058 241.570 C 295.633 241.829,297.123 242.205,298.875 242.532 C 299.494 242.648,300.000 242.794,300.000 242.856 C 300.000 242.919,302.031 242.980,304.514 242.992 C 307.605 243.007,308.994 242.959,308.921 242.840 C 308.856 242.735,309.009 242.667,309.313 242.667 C 309.588 242.667,310.436 242.509,311.198 242.317 C 311.960 242.124,312.808 241.926,313.083 241.877 C 313.358 241.828,313.628 241.718,313.683 241.633 C 313.738 241.548,314.015 241.473,314.300 241.464 C 314.584 241.456,314.856 241.349,314.903 241.225 C 314.951 241.101,315.209 241.000,315.477 241.000 C 315.756 241.000,316.005 240.893,316.060 240.750 C 316.113 240.612,316.303 240.500,316.483 240.500 C 316.663 240.500,316.922 240.387,317.060 240.250 C 317.197 240.112,317.465 240.000,317.655 240.000 C 317.845 240.000,318.001 239.944,318.002 239.875 C 318.003 239.806,318.312 239.603,318.688 239.422 C 319.064 239.242,319.408 238.998,319.454 238.881 C 319.499 238.763,319.668 238.667,319.831 238.667 C 319.993 238.667,320.219 238.554,320.333 238.417 C 320.447 238.279,320.600 238.167,320.673 238.167 C 320.800 238.167,321.355 237.736,322.017 237.125 C 322.191 236.965,322.372 236.833,322.419 236.833 C 322.573 236.833,325.235 234.094,325.825 233.329 C 326.141 232.919,326.497 232.523,326.616 232.450 C 326.736 232.377,326.833 232.208,326.833 232.075 C 326.833 231.942,326.908 231.833,327.000 231.833 C 327.092 231.833,327.167 231.753,327.167 231.656 C 327.167 231.558,327.345 231.239,327.564 230.947 C 327.783 230.655,328.013 230.248,328.075 230.042 C 328.138 229.835,328.259 229.667,328.345 229.667 C 328.430 229.667,328.500 229.517,328.500 229.333 C 328.500 229.150,328.577 229.000,328.671 229.000 C 328.765 229.000,328.913 228.812,329.000 228.583 C 329.087 228.353,329.311 227.832,329.496 227.425 C 329.682 227.018,329.833 226.615,329.833 226.530 C 329.833 226.444,329.938 226.287,330.066 226.181 C 330.194 226.075,330.334 225.747,330.378 225.452 C 330.422 225.158,330.535 224.692,330.629 224.417 C 331.149 222.892,331.333 222.134,331.333 221.509 C 331.333 221.088,331.399 220.854,331.500 220.917 C 331.603 220.980,331.668 220.682,331.670 220.135 C 331.671 219.648,331.751 218.537,331.846 217.667 C 332.031 215.984,331.764 210.738,331.478 210.425 C 331.398 210.338,331.331 209.925,331.327 209.508 C 331.324 209.091,331.214 208.563,331.083 208.333 C 330.952 208.104,330.840 207.692,330.834 207.417 C 330.828 207.142,330.713 206.771,330.578 206.593 C 330.443 206.415,330.333 206.068,330.333 205.822 C 330.333 205.576,330.221 205.281,330.083 205.167 C 329.946 205.053,329.833 204.881,329.833 204.785 C 329.833 204.480,328.790 202.333,328.642 202.333 C 328.564 202.333,328.500 202.188,328.500 202.010 C 328.500 201.832,328.429 201.643,328.343 201.589 C 328.257 201.536,328.018 201.156,327.813 200.746 C 327.608 200.335,327.315 199.864,327.162 199.700 C 327.009 199.536,326.854 199.316,326.817 199.212 C 326.549 198.455,321.815 193.667,321.334 193.667 C 321.262 193.667,321.159 193.554,321.106 193.417 C 321.054 193.279,320.896 193.167,320.755 193.167 C 320.615 193.167,320.500 193.107,320.500 193.035 C 320.500 192.963,319.956 192.607,319.292 192.244 C 318.627 191.882,317.933 191.498,317.750 191.392 C 316.554 190.697,314.047 189.666,313.556 189.666 C 313.357 189.666,313.168 189.588,313.136 189.491 C 313.104 189.394,312.666 189.251,312.164 189.173 C 311.661 189.094,310.950 188.914,310.583 188.772 C 309.473 188.343,299.420 188.392,298.167 188.833 M6.333 215.750 L 6.333 241.833 12.383 241.833 C 16.867 241.833,18.485 241.782,18.633 241.633 C 18.783 241.484,18.833 239.642,18.833 234.373 C 18.833 228.767,18.876 227.340,19.042 227.444 C 19.471 227.712,20.913 227.828,21.458 227.639 C 21.665 227.567,21.833 227.563,21.833 227.629 C 21.833 227.787,24.190 227.775,24.447 227.616 C 24.555 227.549,24.679 227.552,24.722 227.622 C 24.799 227.746,26.044 227.742,27.750 227.613 C 28.208 227.578,29.408 227.493,30.417 227.424 C 31.591 227.344,32.345 227.215,32.513 227.066 C 32.658 226.938,32.974 226.833,33.216 226.833 C 33.607 226.833,34.363 226.572,35.206 226.146 C 35.365 226.066,35.628 225.998,35.789 225.995 C 35.951 225.992,36.226 225.882,36.400 225.750 C 36.573 225.618,36.776 225.548,36.850 225.593 C 36.923 225.639,37.065 225.524,37.164 225.338 C 37.264 225.152,37.483 225.000,37.652 225.000 C 37.821 225.000,38.053 224.887,38.167 224.750 C 38.281 224.612,38.477 224.500,38.604 224.500 C 38.730 224.500,38.833 224.425,38.833 224.333 C 38.833 224.242,38.914 224.167,39.012 224.167 C 39.110 224.167,39.295 224.073,39.423 223.958 C 39.902 223.529,40.155 223.333,40.232 223.333 C 40.428 223.333,42.333 221.416,42.333 221.220 C 42.333 221.099,42.446 221.000,42.583 221.000 C 42.721 221.000,42.833 220.896,42.833 220.768 C 42.833 220.640,42.946 220.492,43.083 220.440 C 43.221 220.387,43.333 220.233,43.333 220.097 C 43.333 219.961,43.427 219.790,43.542 219.717 C 43.746 219.586,43.968 219.243,44.488 218.250 C 44.632 217.975,44.844 217.690,44.958 217.617 C 45.073 217.543,45.167 217.346,45.167 217.179 C 45.167 217.011,45.279 216.781,45.417 216.667 C 45.554 216.553,45.667 216.296,45.667 216.096 C 45.667 215.897,45.731 215.662,45.810 215.575 C 46.426 214.896,47.056 210.363,46.935 207.486 C 46.850 205.457,46.734 204.698,46.235 202.902 C 46.106 202.436,46.000 201.892,46.000 201.694 C 46.000 201.495,45.925 201.333,45.833 201.333 C 45.742 201.333,45.667 201.193,45.667 201.020 C 45.667 200.848,45.554 200.614,45.417 200.500 C 45.279 200.386,45.167 200.114,45.167 199.896 C 45.167 199.678,45.102 199.500,45.022 199.500 C 44.942 199.500,44.592 199.012,44.244 198.417 C 43.895 197.821,43.548 197.333,43.472 197.333 C 43.396 197.333,43.333 197.218,43.333 197.078 C 43.333 196.938,43.221 196.780,43.083 196.727 C 42.946 196.674,42.833 196.542,42.833 196.434 C 42.833 195.639,37.424 191.500,36.386 191.500 C 36.260 191.500,36.113 191.387,36.060 191.250 C 36.008 191.112,35.799 191.000,35.597 191.000 C 35.396 191.000,35.085 190.890,34.907 190.755 C 34.729 190.621,34.414 190.508,34.206 190.505 C 33.999 190.502,33.699 190.434,33.539 190.354 C 32.259 189.709,31.277 189.664,18.625 189.665 L 6.333 189.667 6.333 215.750 M74.855 190.373 C 74.470 191.239,74.226 191.934,74.094 192.542 C 74.039 192.794,73.920 193.000,73.830 193.000 C 73.740 193.000,73.667 193.220,73.667 193.488 C 73.667 193.757,73.554 194.089,73.417 194.226 C 73.279 194.364,73.167 194.707,73.167 194.988 C 73.167 195.270,73.098 195.500,73.013 195.500 C 72.929 195.500,72.812 195.744,72.754 196.042 C 72.695 196.340,72.579 196.733,72.496 196.917 C 72.412 197.100,72.107 197.963,71.816 198.833 C 71.526 199.704,71.186 200.565,71.061 200.745 C 70.936 200.926,70.833 201.201,70.833 201.357 C 70.833 201.512,70.726 201.852,70.596 202.111 C 70.465 202.371,70.264 202.921,70.149 203.333 C 70.034 203.746,69.894 204.158,69.838 204.250 C 69.782 204.342,69.598 204.867,69.430 205.417 C 69.261 205.967,69.020 206.653,68.895 206.942 C 68.769 207.231,68.667 207.619,68.667 207.805 C 68.667 207.991,68.573 208.242,68.458 208.363 C 68.273 208.559,68.059 209.150,67.443 211.167 C 67.345 211.487,67.167 211.868,67.049 212.013 C 66.930 212.158,66.833 212.467,66.833 212.701 C 66.833 212.935,66.721 213.219,66.583 213.333 C 66.446 213.447,66.333 213.750,66.333 214.007 C 66.333 214.263,66.273 214.497,66.200 214.528 C 66.126 214.558,65.896 215.108,65.689 215.750 C 65.482 216.392,65.254 217.067,65.182 217.250 C 64.880 218.022,64.500 219.315,64.500 219.569 C 64.500 219.720,64.387 219.887,64.250 219.940 C 64.109 219.994,64.000 220.242,64.000 220.508 C 64.000 220.768,63.925 221.027,63.833 221.083 C 63.742 221.140,63.666 221.313,63.666 221.468 C 63.665 221.623,63.553 221.965,63.416 222.227 C 63.279 222.490,63.167 222.842,63.167 223.009 C 63.167 223.177,63.092 223.360,63.000 223.417 C 62.908 223.473,62.831 223.684,62.828 223.885 C 62.825 224.086,62.713 224.396,62.578 224.574 C 62.443 224.751,62.333 225.054,62.333 225.245 C 62.333 225.436,62.232 225.740,62.108 225.921 C 61.984 226.102,61.753 226.700,61.594 227.250 C 61.436 227.800,61.200 228.496,61.070 228.797 C 60.940 229.098,60.833 229.488,60.833 229.662 C 60.833 229.837,60.758 230.027,60.667 230.083 C 60.575 230.140,60.500 230.360,60.500 230.573 C 60.500 230.785,60.387 231.053,60.250 231.167 C 60.112 231.281,60.000 231.581,60.000 231.833 C 60.000 232.086,59.887 232.386,59.750 232.500 C 59.612 232.614,59.500 232.923,59.500 233.187 C 59.500 233.451,59.444 233.667,59.375 233.667 C 59.306 233.667,59.105 234.135,58.929 234.708 C 58.752 235.281,58.546 235.821,58.470 235.908 C 58.395 235.995,58.333 236.223,58.333 236.415 C 58.333 236.606,58.183 237.057,58.000 237.417 C 57.817 237.776,57.667 238.233,57.667 238.431 C 57.667 238.630,57.562 238.879,57.435 238.985 C 57.042 239.311,56.716 241.242,56.997 241.579 C 57.327 241.978,69.688 241.936,70.051 241.536 C 70.309 241.250,70.454 240.850,71.153 238.500 C 71.358 237.813,71.632 237.051,71.763 236.808 C 71.893 236.564,72.000 236.170,72.000 235.931 L 72.000 235.497 80.869 235.540 L 89.738 235.583 89.893 236.250 C 89.978 236.617,90.101 236.954,90.166 237.000 C 90.230 237.046,90.327 237.419,90.381 237.830 C 90.435 238.240,90.558 238.603,90.656 238.635 C 90.753 238.668,90.833 238.893,90.833 239.136 C 90.833 239.692,91.501 241.350,91.833 241.620 C 92.102 241.838,104.029 241.933,104.812 241.723 C 105.227 241.612,105.256 240.094,104.847 239.842 C 104.758 239.787,104.612 239.444,104.522 239.079 C 104.433 238.715,104.120 237.779,103.826 237.000 C 103.533 236.221,103.256 235.413,103.210 235.206 C 103.164 234.998,103.061 234.788,102.980 234.738 C 102.899 234.688,102.833 234.520,102.832 234.365 C 102.832 234.210,102.719 233.869,102.582 233.606 C 102.445 233.343,102.333 232.959,102.333 232.751 C 102.333 232.544,102.221 232.281,102.083 232.167 C 101.946 232.053,101.833 231.848,101.833 231.713 C 101.833 231.578,101.732 231.231,101.608 230.942 C 101.312 230.251,100.682 228.397,100.502 227.688 C 100.423 227.379,100.278 227.045,100.180 226.946 C 100.081 226.847,100.000 226.581,100.000 226.355 C 100.000 226.128,99.901 225.825,99.780 225.680 C 99.659 225.535,99.419 224.967,99.246 224.417 C 99.073 223.867,98.872 223.345,98.799 223.258 C 98.726 223.171,98.667 222.932,98.667 222.727 C 98.667 222.521,98.597 222.310,98.513 222.258 C 98.428 222.206,98.307 221.924,98.243 221.633 C 98.178 221.341,98.023 220.999,97.896 220.873 C 97.770 220.746,97.667 220.436,97.667 220.183 C 97.667 219.929,97.618 219.674,97.559 219.614 C 97.399 219.455,96.845 217.796,96.839 217.458 C 96.836 217.298,96.765 217.167,96.681 217.167 C 96.598 217.167,96.479 216.867,96.417 216.501 C 96.355 216.135,96.236 215.793,96.152 215.741 C 96.068 215.689,96.000 215.498,96.000 215.315 C 96.000 215.132,95.857 214.705,95.682 214.366 C 95.131 213.299,94.167 210.606,94.167 210.134 C 94.167 209.991,94.054 209.781,93.917 209.667 C 93.779 209.553,93.667 209.258,93.667 209.011 C 93.667 208.765,93.557 208.418,93.422 208.240 C 93.287 208.062,93.175 207.754,93.172 207.555 C 93.169 207.356,93.057 206.981,92.923 206.722 C 92.790 206.462,92.485 205.688,92.245 205.000 C 92.006 204.313,91.703 203.551,91.572 203.308 C 91.441 203.064,91.331 202.727,91.328 202.558 C 91.325 202.388,91.213 202.104,91.078 201.926 C 90.943 201.749,90.833 201.445,90.833 201.251 C 90.833 201.058,90.770 200.829,90.693 200.742 C 90.616 200.655,90.418 200.133,90.255 199.583 C 90.091 199.033,89.892 198.512,89.812 198.425 C 89.732 198.338,89.667 198.071,89.667 197.832 C 89.667 197.593,89.557 197.251,89.422 197.074 C 89.287 196.896,89.175 196.553,89.172 196.312 C 89.169 196.071,89.056 195.782,88.921 195.670 C 88.786 195.558,88.628 195.211,88.569 194.898 C 88.510 194.585,88.396 194.289,88.314 194.238 C 88.233 194.188,88.167 194.010,88.167 193.843 C 88.167 193.675,88.055 193.323,87.918 193.061 C 87.781 192.798,87.668 192.452,87.668 192.292 C 87.667 192.131,87.592 192.000,87.500 192.000 C 87.408 192.000,87.333 191.784,87.333 191.520 C 87.333 191.257,87.225 190.951,87.093 190.842 C 86.961 190.732,86.830 190.442,86.802 190.196 L 86.750 189.750 80.960 189.706 L 75.170 189.662 74.855 190.373 M112.875 189.777 C 112.475 189.939,112.585 200.278,112.989 200.494 C 113.192 200.603,115.308 200.667,118.712 200.667 L 124.113 200.667 124.074 201.875 C 124.052 202.540,124.111 203.177,124.204 203.292 C 124.298 203.406,124.307 203.500,124.225 203.500 C 124.138 203.500,124.077 211.352,124.080 222.343 L 124.084 241.187 124.501 241.505 C 125.147 242.000,136.348 241.986,136.844 241.489 C 137.159 241.174,137.167 240.713,137.167 220.911 L 137.167 200.655 142.662 200.673 C 145.685 200.684,148.235 200.644,148.329 200.586 C 148.440 200.517,148.500 198.592,148.500 195.073 L 148.500 189.667 130.792 189.680 C 121.052 189.687,112.990 189.731,112.875 189.777 M166.278 189.778 C 166.217 189.839,166.167 201.462,166.167 215.607 L 166.167 241.326 166.545 241.573 C 167.006 241.876,177.966 241.953,178.517 241.658 C 178.820 241.495,178.833 241.193,178.833 234.494 C 178.833 228.388,178.865 227.500,179.083 227.500 C 179.221 227.500,179.333 227.578,179.333 227.673 C 179.333 227.790,179.441 227.788,179.667 227.667 C 179.850 227.569,180.000 227.556,180.000 227.638 C 180.000 227.800,180.705 227.766,180.990 227.589 C 181.087 227.529,181.167 227.546,181.167 227.626 C 181.167 227.774,182.337 227.760,183.249 227.601 C 183.734 227.516,184.667 228.438,184.667 229.002 C 184.667 229.093,184.734 229.167,184.817 229.167 C 184.900 229.167,185.046 229.392,185.142 229.667 C 185.238 229.942,185.395 230.167,185.491 230.167 C 185.588 230.167,185.667 230.247,185.667 230.345 C 185.667 230.443,185.892 230.850,186.167 231.250 C 186.442 231.650,186.667 232.057,186.667 232.155 C 186.667 232.253,186.742 232.333,186.833 232.333 C 186.925 232.333,187.000 232.408,187.000 232.499 C 187.000 232.591,187.356 233.176,187.792 233.801 C 188.837 235.300,188.969 235.509,189.177 235.997 C 189.275 236.224,189.408 236.449,189.475 236.497 C 189.654 236.626,190.787 238.383,191.019 238.891 C 191.129 239.134,191.283 239.333,191.360 239.333 C 191.437 239.333,191.500 239.446,191.500 239.583 C 191.500 239.721,191.571 239.833,191.659 239.833 C 191.746 239.833,191.941 240.092,192.091 240.409 C 192.241 240.725,192.539 241.174,192.754 241.405 L 193.144 241.826 200.030 241.788 L 206.917 241.750 206.966 241.160 C 207.000 240.755,206.894 240.390,206.625 239.993 C 206.410 239.676,206.184 239.285,206.122 239.125 C 206.061 238.965,205.933 238.833,205.839 238.833 C 205.744 238.833,205.667 238.691,205.667 238.518 C 205.667 238.344,205.554 238.159,205.417 238.106 C 205.279 238.054,205.167 237.938,205.167 237.850 C 205.167 237.762,204.867 237.239,204.500 236.687 C 204.133 236.135,203.833 235.610,203.833 235.522 C 203.833 235.434,203.775 235.336,203.703 235.306 C 203.632 235.275,203.094 234.463,202.507 233.500 C 201.921 232.537,201.379 231.725,201.304 231.694 C 201.228 231.664,201.167 231.571,201.167 231.489 C 201.167 231.407,200.754 230.730,200.250 229.985 C 199.746 229.241,199.333 228.531,199.333 228.407 C 199.333 228.284,199.240 228.123,199.125 228.050 C 198.898 227.905,198.656 227.541,198.239 226.716 C 198.091 226.422,197.864 226.094,197.735 225.987 C 197.606 225.880,197.500 225.695,197.500 225.577 C 197.500 225.458,197.406 225.326,197.292 225.283 C 197.161 225.235,197.208 225.162,197.417 225.091 C 197.600 225.028,197.862 224.904,198.000 224.816 C 198.137 224.729,198.381 224.613,198.542 224.559 C 198.702 224.505,198.833 224.395,198.833 224.314 C 198.833 224.233,198.946 224.167,199.083 224.167 C 199.221 224.167,199.333 224.092,199.333 224.000 C 199.333 223.908,199.448 223.833,199.589 223.833 C 199.729 223.833,199.887 223.721,199.940 223.583 C 199.992 223.446,200.178 223.333,200.351 223.333 C 200.525 223.333,200.667 223.258,200.667 223.167 C 200.667 222.951,201.284 222.333,201.500 222.333 C 201.592 222.333,201.667 222.277,201.668 222.208 C 201.669 222.140,202.034 221.694,202.480 221.219 C 202.925 220.743,203.335 220.237,203.390 220.094 C 203.445 219.950,203.567 219.833,203.661 219.833 C 203.756 219.833,203.833 219.763,203.833 219.678 C 203.833 219.479,204.876 217.768,205.042 217.694 C 205.110 217.664,205.167 217.504,205.167 217.340 C 205.167 217.175,205.279 216.947,205.417 216.833 C 205.554 216.719,205.667 216.520,205.667 216.390 C 205.667 216.261,205.773 215.989,205.902 215.786 C 206.982 214.094,207.509 206.975,206.769 204.083 C 206.279 202.168,205.947 201.167,205.803 201.167 C 205.728 201.167,205.667 200.988,205.667 200.770 C 205.667 200.552,205.554 200.281,205.417 200.167 C 205.279 200.053,205.167 199.822,205.167 199.655 C 205.167 199.487,205.073 199.290,204.958 199.217 C 204.844 199.143,204.632 198.858,204.488 198.583 C 204.056 197.760,203.764 197.293,203.500 197.006 C 203.362 196.857,202.987 196.405,202.667 196.002 C 202.346 195.599,201.944 195.152,201.774 195.010 C 201.604 194.867,201.209 194.506,200.896 194.208 C 200.583 193.910,200.262 193.667,200.181 193.667 C 200.101 193.667,199.992 193.554,199.940 193.417 C 199.887 193.279,199.729 193.167,199.589 193.167 C 199.448 193.167,199.333 193.110,199.332 193.042 C 199.331 192.837,196.956 191.500,196.595 191.500 C 196.473 191.500,196.287 191.395,196.181 191.267 C 196.075 191.140,195.728 190.986,195.411 190.927 C 195.093 190.867,194.833 190.747,194.833 190.659 C 194.833 190.572,194.613 190.500,194.343 190.500 C 194.074 190.500,193.807 190.425,193.750 190.333 C 193.693 190.242,193.436 190.167,193.178 190.167 C 192.920 190.167,192.390 190.054,192.000 189.917 C 191.256 189.654,166.535 189.521,166.278 189.778 M226.519 189.893 C 226.381 190.060,226.332 196.946,226.334 215.709 L 226.337 241.298 226.743 241.564 C 227.445 242.023,257.876 241.957,258.338 241.495 C 258.740 241.094,258.858 231.925,258.467 231.533 C 258.316 231.382,255.922 231.333,248.717 231.333 L 239.167 231.333 239.167 226.167 L 239.167 221.000 248.641 221.000 C 257.608 221.000,258.130 220.984,258.391 220.695 C 258.634 220.427,258.667 219.832,258.667 215.722 L 258.667 211.054 258.252 210.865 C 257.959 210.731,255.115 210.676,248.544 210.678 L 239.250 210.680 239.250 205.381 L 239.250 200.083 248.741 200.056 C 257.631 200.031,258.247 200.011,258.450 199.733 C 258.805 199.247,258.761 189.905,258.403 189.768 C 257.796 189.535,226.715 189.657,226.519 189.893 M350.755 190.208 C 350.492 191.721,350.749 241.272,351.020 241.544 C 351.317 241.841,362.984 241.905,363.278 241.611 C 363.354 241.535,363.454 234.410,363.500 225.778 L 363.583 210.083 363.958 210.866 C 364.165 211.296,364.333 211.732,364.333 211.834 C 364.333 211.936,364.408 211.973,364.500 211.917 C 364.592 211.860,364.667 211.959,364.667 212.136 C 364.667 212.314,364.779 212.553,364.917 212.667 C 365.054 212.781,365.167 212.972,365.167 213.092 C 365.167 213.212,365.260 213.410,365.375 213.533 C 365.490 213.656,365.840 214.243,366.154 214.837 C 366.467 215.431,366.898 216.178,367.112 216.497 C 367.325 216.816,367.500 217.172,367.500 217.289 C 367.500 217.405,367.564 217.500,367.642 217.500 C 367.720 217.500,368.026 218.025,368.322 218.667 C 368.618 219.308,368.910 219.834,368.971 219.834 C 369.033 219.834,369.223 220.175,369.395 220.592 C 369.566 221.008,369.795 221.439,369.904 221.550 C 370.013 221.660,370.323 222.200,370.593 222.750 C 370.863 223.300,371.177 223.810,371.292 223.883 C 371.406 223.957,371.500 224.163,371.500 224.342 C 371.500 224.520,371.570 224.667,371.655 224.667 C 371.741 224.667,371.858 224.815,371.916 224.997 C 371.973 225.178,372.428 226.047,372.927 226.927 C 373.425 227.808,373.833 228.593,373.833 228.672 C 373.833 228.752,373.928 228.877,374.043 228.950 C 374.159 229.023,374.475 229.533,374.746 230.083 C 375.018 230.633,375.298 231.108,375.370 231.139 C 375.441 231.169,375.500 231.341,375.500 231.519 C 375.500 231.698,375.613 231.887,375.750 231.940 C 375.887 231.992,376.000 232.211,376.000 232.426 C 376.000 232.641,376.100 232.877,376.222 232.950 C 376.417 233.067,377.153 234.335,378.211 236.375 C 378.389 236.719,378.602 237.000,378.684 237.000 C 378.766 237.000,378.833 237.116,378.833 237.259 C 378.833 237.401,379.021 237.794,379.250 238.131 C 379.479 238.468,379.667 238.877,379.667 239.039 C 379.667 239.201,379.725 239.333,379.797 239.333 C 379.868 239.333,380.020 239.540,380.133 239.792 C 381.119 241.979,380.559 241.827,387.605 241.825 L 393.667 241.823 393.667 215.745 L 393.667 189.667 387.674 189.667 L 381.682 189.667 381.587 190.208 C 381.535 190.506,381.513 197.662,381.538 206.111 C 381.574 218.385,381.541 221.437,381.375 221.299 C 381.260 221.204,381.167 220.999,381.167 220.844 C 381.167 220.690,381.035 220.417,380.875 220.240 C 380.715 220.062,380.473 219.692,380.337 219.417 C 380.202 219.142,379.920 218.637,379.712 218.295 C 379.504 217.953,379.333 217.567,379.333 217.438 C 379.333 217.308,379.221 217.159,379.083 217.106 C 378.946 217.054,378.833 216.863,378.833 216.682 C 378.833 216.501,378.769 216.313,378.690 216.264 C 378.611 216.215,378.190 215.480,377.754 214.629 C 377.318 213.779,376.869 212.971,376.756 212.833 C 376.643 212.696,376.498 212.471,376.434 212.333 C 376.370 212.196,376.024 211.558,375.665 210.917 C 375.306 210.275,374.818 209.375,374.580 208.917 C 374.342 208.458,373.924 207.708,373.652 207.250 C 373.380 206.792,373.083 206.267,372.993 206.083 C 372.902 205.900,372.683 205.525,372.506 205.250 C 372.329 204.975,371.824 204.052,371.384 203.199 C 370.943 202.345,370.478 201.445,370.350 201.199 C 370.221 200.952,370.015 200.690,369.892 200.617 C 369.768 200.543,369.667 200.342,369.667 200.168 C 369.667 199.995,369.594 199.808,369.504 199.753 C 369.415 199.698,369.213 199.374,369.055 199.035 C 368.897 198.695,368.726 198.379,368.675 198.333 C 368.625 198.287,368.409 197.912,368.195 197.500 C 367.982 197.088,367.476 196.150,367.069 195.417 C 366.663 194.683,366.255 193.933,366.163 193.750 C 366.071 193.567,365.847 193.192,365.666 192.917 C 365.485 192.642,365.287 192.304,365.226 192.167 C 365.165 192.029,364.823 191.410,364.467 190.792 L 363.819 189.667 357.334 189.667 L 350.848 189.667 350.755 190.208 M307.417 200.098 C 307.692 200.146,307.988 200.256,308.075 200.343 C 308.162 200.429,308.475 200.500,308.771 200.500 C 309.067 200.500,309.422 200.612,309.560 200.750 C 309.697 200.887,309.894 201.000,309.998 201.000 C 310.224 201.000,311.476 201.686,312.467 202.352 C 312.861 202.617,313.255 202.833,313.342 202.833 C 313.429 202.833,313.500 202.908,313.500 203.000 C 313.500 203.092,313.650 203.317,313.833 203.500 C 314.017 203.683,314.167 203.798,314.167 203.756 C 314.167 203.713,314.429 203.940,314.750 204.261 C 315.071 204.582,315.333 204.917,315.333 205.006 C 315.333 205.094,315.391 205.167,315.461 205.167 C 315.531 205.167,315.773 205.467,316.000 205.833 C 316.227 206.200,316.469 206.500,316.539 206.500 C 316.609 206.500,316.667 206.641,316.667 206.813 C 316.667 206.985,316.779 207.219,316.917 207.333 C 317.054 207.447,317.167 207.719,317.167 207.937 C 317.167 208.155,317.235 208.333,317.318 208.333 C 317.482 208.333,318.108 210.153,318.030 210.401 C 318.004 210.485,318.063 210.603,318.162 210.664 C 318.261 210.725,318.388 211.163,318.444 211.638 C 318.500 212.112,318.611 212.500,318.690 212.500 C 318.769 212.500,318.833 213.887,318.833 215.583 C 318.833 217.279,318.769 218.667,318.690 218.667 C 318.611 218.667,318.502 219.097,318.448 219.622 C 318.394 220.148,318.271 220.604,318.175 220.636 C 318.079 220.668,318.000 220.857,318.000 221.056 C 318.000 221.435,317.489 222.900,317.285 223.103 C 317.220 223.169,317.167 223.397,317.167 223.611 C 317.167 223.846,317.067 224.000,316.917 224.000 C 316.779 224.000,316.667 224.110,316.667 224.244 C 316.667 224.840,314.789 227.161,313.497 228.162 C 313.086 228.481,312.712 228.781,312.667 228.829 C 312.493 229.011,311.876 229.353,310.667 229.935 C 309.979 230.266,309.286 230.603,309.127 230.685 C 308.968 230.767,308.545 230.833,308.187 230.833 C 307.762 230.833,307.502 230.920,307.440 231.083 C 307.360 231.292,306.877 231.333,304.526 231.333 C 302.224 231.333,301.669 231.288,301.500 231.083 C 301.382 230.941,301.018 230.833,300.656 230.833 C 300.306 230.833,299.973 230.758,299.917 230.667 C 299.860 230.575,299.711 230.500,299.585 230.500 C 299.278 230.500,297.208 229.535,297.084 229.335 C 297.030 229.247,296.737 229.058,296.433 228.913 C 295.669 228.551,293.167 226.069,293.167 225.674 C 293.167 225.578,293.090 225.500,292.996 225.500 C 292.903 225.500,292.736 225.294,292.625 225.042 C 292.514 224.790,292.381 224.546,292.328 224.500 C 292.276 224.454,292.103 224.139,291.945 223.799 C 291.787 223.459,291.585 223.136,291.496 223.081 C 291.406 223.025,291.333 222.812,291.333 222.607 C 291.333 222.401,291.249 222.149,291.147 222.047 C 290.963 221.863,290.855 221.470,290.492 219.667 C 290.391 219.162,290.231 218.375,290.138 217.917 C 289.859 216.552,290.186 211.889,290.635 210.833 C 290.732 210.604,290.858 210.135,290.914 209.792 C 290.969 209.448,291.087 209.167,291.174 209.167 C 291.262 209.167,291.333 208.988,291.333 208.770 C 291.333 208.552,291.446 208.281,291.583 208.167 C 291.721 208.053,291.833 207.853,291.833 207.724 C 291.833 207.391,293.179 205.404,294.073 204.417 C 294.488 203.958,294.829 203.527,294.831 203.458 C 294.832 203.390,294.946 203.333,295.083 203.333 C 295.221 203.333,295.333 203.266,295.333 203.184 C 295.333 203.102,295.877 202.706,296.542 202.305 C 298.284 201.253,298.770 201.000,299.050 201.000 C 299.186 201.000,299.341 200.887,299.394 200.750 C 299.453 200.594,299.708 200.500,300.068 200.500 C 300.387 200.500,300.693 200.425,300.750 200.333 C 300.807 200.242,301.167 200.162,301.552 200.157 C 301.936 200.152,302.550 200.086,302.917 200.012 C 303.580 199.877,306.464 199.932,307.417 200.098 M28.057 200.324 C 28.154 200.421,28.476 200.500,28.773 200.500 C 29.071 200.500,29.363 200.580,29.423 200.677 C 29.483 200.774,29.694 200.927,29.891 201.017 C 30.865 201.461,32.500 202.802,32.500 203.157 C 32.500 203.254,32.556 203.334,32.625 203.335 C 32.770 203.336,33.167 204.139,33.167 204.429 C 33.167 204.537,33.279 204.719,33.417 204.833 C 33.554 204.947,33.667 205.262,33.667 205.532 C 33.667 205.803,33.779 206.136,33.917 206.274 C 34.112 206.469,34.167 206.974,34.167 208.575 C 34.167 210.195,34.114 210.669,33.917 210.833 C 33.779 210.947,33.667 211.252,33.667 211.511 C 33.667 211.769,33.597 212.023,33.513 212.075 C 33.428 212.128,33.310 212.395,33.250 212.669 C 33.189 212.943,33.071 213.167,32.987 213.167 C 32.902 213.167,32.833 213.267,32.833 213.390 C 32.833 213.643,31.982 214.818,31.792 214.827 C 31.679 214.833,31.514 214.967,30.653 215.758 C 30.507 215.891,30.282 216.002,30.153 216.005 C 30.023 216.008,29.771 216.121,29.593 216.255 C 29.415 216.390,29.134 216.500,28.968 216.500 C 28.802 216.500,28.667 216.575,28.667 216.667 C 28.667 216.774,26.917 216.833,23.750 216.833 L 18.833 216.833 18.833 208.458 L 18.833 200.083 23.357 200.116 C 26.269 200.136,27.944 200.211,28.057 200.324 M188.727 200.422 C 190.639 200.775,193.425 203.596,193.722 205.478 C 193.762 205.734,193.916 206.177,194.064 206.463 C 194.477 207.262,194.438 209.891,194.000 210.750 C 193.817 211.110,193.667 211.519,193.667 211.660 C 193.667 212.417,191.703 215.333,191.194 215.333 C 191.110 215.333,190.948 215.445,190.835 215.581 C 190.723 215.717,190.282 215.988,189.857 216.184 C 189.431 216.380,188.953 216.606,188.794 216.687 C 188.635 216.767,186.329 216.833,183.669 216.833 L 178.833 216.833 178.833 208.505 L 178.833 200.176 181.042 200.130 C 183.502 200.078,187.737 200.239,188.727 200.422 M81.490 208.417 C 81.579 208.692,81.689 209.132,81.735 209.395 C 81.781 209.659,81.925 209.996,82.056 210.145 C 82.186 210.295,82.336 210.642,82.389 210.917 C 82.627 212.157,82.824 212.983,83.083 213.833 C 83.237 214.338,83.438 215.144,83.531 215.625 C 83.624 216.106,83.767 216.500,83.850 216.500 C 83.932 216.500,84.000 216.791,84.000 217.146 C 84.000 217.502,84.105 217.879,84.232 217.985 C 84.360 218.092,84.504 218.419,84.553 218.714 C 84.601 219.009,84.767 219.662,84.922 220.167 C 85.077 220.671,85.243 221.308,85.291 221.583 C 85.340 221.858,85.481 222.231,85.606 222.412 C 85.731 222.593,85.833 222.979,85.833 223.269 C 85.833 223.585,85.934 223.836,86.083 223.894 C 86.245 223.955,86.333 224.213,86.333 224.620 L 86.333 225.250 81.375 225.214 C 78.648 225.194,76.170 225.175,75.867 225.172 C 75.262 225.166,75.218 224.427,75.769 223.548 C 75.896 223.345,76.002 222.970,76.005 222.714 C 76.008 222.459,76.121 222.104,76.255 221.926 C 76.390 221.749,76.500 221.355,76.500 221.051 C 76.500 220.748,76.575 220.500,76.667 220.500 C 76.758 220.500,76.836 220.294,76.839 220.042 C 76.842 219.790,76.952 219.396,77.083 219.167 C 77.214 218.938,77.324 218.548,77.327 218.302 C 77.331 218.055,77.408 217.807,77.500 217.750 C 77.592 217.693,77.667 217.443,77.667 217.194 C 77.667 216.945,77.777 216.584,77.911 216.392 C 78.045 216.200,78.229 215.752,78.320 215.397 C 78.612 214.254,78.967 212.941,79.239 212.000 C 79.385 211.496,79.551 210.838,79.608 210.538 C 79.665 210.237,79.776 209.952,79.856 209.903 C 79.935 209.854,80.000 209.565,80.000 209.261 C 80.000 208.956,80.112 208.614,80.250 208.500 C 80.387 208.386,80.500 208.113,80.500 207.894 C 80.500 207.674,80.594 207.195,80.708 206.829 L 80.916 206.162 81.123 207.039 C 81.236 207.522,81.402 208.142,81.490 208.417 " stroke="none" fill="#fcfcfc" fill-rule="evenodd"></path><path id="path1" d="M129.768 5.930 C 129.615 6.329,129.652 157.885,129.805 158.126 C 129.910 158.292,132.829 158.326,143.844 158.293 L 157.750 158.250 157.792 81.958 L 157.834 5.667 143.851 5.667 C 131.255 5.667,129.859 5.693,129.768 5.930 M228.308 5.747 C 228.268 5.787,227.566 5.866,226.748 5.923 C 225.930 5.979,225.194 6.067,225.112 6.117 C 224.976 6.201,223.438 6.371,222.833 6.369 C 222.696 6.368,222.169 6.471,221.662 6.596 C 221.155 6.721,220.388 6.866,219.959 6.917 C 219.529 6.969,218.856 7.126,218.464 7.265 C 218.071 7.405,217.388 7.589,216.946 7.675 C 216.504 7.760,215.896 7.946,215.595 8.089 C 215.293 8.232,214.980 8.331,214.899 8.308 C 214.665 8.244,213.930 8.525,213.794 8.731 C 213.707 8.864,213.671 8.860,213.669 8.718 C 213.667 8.521,213.555 8.557,211.083 9.533 C 209.470 10.170,209.016 10.392,209.087 10.507 C 209.127 10.570,209.030 10.619,208.871 10.614 C 208.420 10.602,207.667 10.854,207.667 11.018 C 207.667 11.100,207.556 11.167,207.421 11.167 C 207.037 11.167,205.673 11.876,205.767 12.027 C 205.813 12.102,205.731 12.117,205.586 12.061 C 205.440 12.005,205.192 12.070,205.035 12.205 C 204.878 12.341,204.506 12.575,204.208 12.726 C 202.898 13.389,202.667 13.534,202.667 13.689 C 202.667 13.779,202.598 13.810,202.513 13.758 C 202.429 13.706,202.260 13.758,202.138 13.873 C 201.766 14.226,200.575 15.000,200.406 15.000 C 200.318 15.000,200.044 15.188,199.797 15.417 C 199.550 15.646,199.300 15.833,199.243 15.833 C 199.096 15.833,195.875 18.212,195.186 18.828 C 194.875 19.106,194.562 19.333,194.489 19.333 C 194.416 19.333,194.308 19.483,194.250 19.667 C 194.192 19.850,194.045 20.000,193.925 20.000 C 193.804 20.000,193.440 20.294,193.116 20.652 C 192.792 21.011,192.496 21.274,192.459 21.237 C 192.386 21.164,190.338 23.268,188.833 24.962 C 187.535 26.424,187.474 26.500,187.599 26.500 C 187.661 26.500,187.514 26.655,187.272 26.845 C 187.031 27.035,186.833 27.290,186.833 27.411 C 186.833 27.532,186.740 27.667,186.625 27.711 C 186.376 27.807,184.500 30.380,184.500 30.626 C 184.500 30.720,184.387 30.841,184.250 30.894 C 184.112 30.946,184.000 31.098,184.000 31.231 C 184.000 31.364,183.922 31.498,183.826 31.530 C 183.730 31.562,183.639 31.753,183.624 31.954 C 183.609 32.155,183.564 32.286,183.524 32.246 C 183.416 32.138,182.833 32.850,182.833 33.088 C 182.833 33.201,182.722 33.385,182.585 33.498 C 182.449 33.612,182.378 33.771,182.428 33.852 C 182.479 33.933,182.438 34.000,182.339 34.000 C 182.240 34.000,182.085 34.169,181.996 34.375 C 181.907 34.581,181.614 35.125,181.346 35.583 C 180.926 36.302,180.173 37.744,180.084 38.000 C 180.068 38.046,179.955 38.308,179.833 38.583 C 179.711 38.858,179.601 39.121,179.588 39.167 C 179.575 39.212,179.392 39.625,179.182 40.083 C 178.972 40.542,178.744 41.067,178.674 41.250 C 178.605 41.433,178.386 41.944,178.188 42.386 C 177.989 42.827,177.870 43.259,177.923 43.344 C 177.976 43.430,177.932 43.500,177.825 43.500 C 177.718 43.500,177.674 43.612,177.727 43.750 C 177.780 43.887,177.742 44.000,177.644 44.000 C 177.545 44.000,177.508 44.112,177.560 44.250 C 177.613 44.387,177.579 44.500,177.485 44.500 C 177.391 44.500,177.360 44.575,177.417 44.667 C 177.473 44.758,177.428 44.833,177.315 44.833 C 177.203 44.833,177.157 44.879,177.213 44.935 C 177.268 44.991,177.167 45.409,176.987 45.865 C 176.808 46.321,176.648 46.894,176.633 47.139 C 176.618 47.383,176.536 47.677,176.449 47.792 C 176.363 47.906,176.348 48.000,176.417 48.000 C 176.485 48.000,176.464 48.094,176.370 48.208 C 176.275 48.323,176.156 48.688,176.104 49.019 C 176.052 49.350,175.928 49.834,175.829 50.095 C 175.730 50.355,175.582 51.059,175.501 51.659 C 175.335 52.880,175.223 53.440,175.107 53.628 C 175.064 53.697,174.982 54.241,174.925 54.835 C 174.868 55.430,174.730 56.554,174.619 57.333 C 174.364 59.119,174.390 67.184,174.657 69.250 C 174.871 70.906,175.079 72.196,175.233 72.833 C 175.289 73.063,175.414 73.737,175.512 74.333 C 175.610 74.929,175.735 75.529,175.788 75.667 C 175.842 75.804,175.913 76.142,175.945 76.417 C 175.997 76.861,176.175 77.500,176.918 79.917 C 177.534 81.919,177.749 82.500,177.878 82.500 C 177.956 82.500,177.976 82.571,177.922 82.658 C 177.868 82.746,177.983 83.177,178.179 83.617 C 178.374 84.057,178.589 84.567,178.656 84.750 C 178.724 84.933,179.054 85.646,179.390 86.333 C 179.725 87.021,180.000 87.700,180.000 87.842 C 180.000 87.984,180.071 88.171,180.157 88.258 C 180.244 88.345,180.666 89.092,181.096 89.917 C 181.526 90.742,181.938 91.456,182.012 91.503 C 182.085 91.551,182.226 91.776,182.323 92.003 C 182.421 92.231,182.797 92.867,183.161 93.417 C 183.524 93.967,183.891 94.567,183.976 94.750 C 184.062 94.933,184.288 95.271,184.479 95.500 C 184.671 95.729,184.889 95.992,184.964 96.083 C 185.039 96.175,185.152 96.386,185.216 96.552 C 185.279 96.718,185.407 96.808,185.499 96.751 C 185.591 96.694,185.667 96.736,185.667 96.845 C 185.667 97.109,186.806 98.692,187.194 98.968 C 187.362 99.088,187.500 99.253,187.500 99.336 C 187.500 99.633,192.484 104.775,194.282 106.333 C 195.637 107.509,196.300 108.038,196.361 107.993 C 196.415 107.952,197.045 108.451,197.684 109.042 C 197.858 109.202,198.045 109.333,198.101 109.333 C 198.156 109.333,198.409 109.502,198.661 109.708 C 198.914 109.915,199.290 110.196,199.497 110.333 C 199.705 110.471,199.961 110.658,200.068 110.750 C 200.175 110.842,200.484 111.044,200.756 111.200 C 201.283 111.503,202.327 112.109,203.417 112.743 C 204.474 113.359,207.810 115.026,208.058 115.062 C 208.182 115.081,208.474 115.221,208.708 115.374 C 208.941 115.526,209.346 115.703,209.608 115.765 C 209.869 115.828,210.177 115.953,210.292 116.043 C 210.406 116.134,210.500 116.162,210.500 116.107 C 210.500 116.051,210.762 116.153,211.082 116.333 C 211.402 116.513,211.846 116.693,212.068 116.733 C 212.289 116.773,212.617 116.884,212.797 116.980 C 212.976 117.076,213.170 117.108,213.228 117.050 C 213.286 116.992,213.333 117.022,213.333 117.118 C 213.333 117.213,213.648 117.341,214.033 117.403 C 214.418 117.464,214.815 117.582,214.915 117.665 C 215.015 117.748,215.325 117.856,215.603 117.906 C 215.882 117.955,216.404 118.097,216.763 118.223 C 217.123 118.348,217.623 118.440,217.875 118.428 C 218.127 118.416,218.333 118.455,218.333 118.516 C 218.333 118.577,218.633 118.702,219.000 118.795 C 219.488 118.919,219.667 118.913,219.669 118.774 C 219.671 118.636,219.705 118.634,219.794 118.769 C 219.862 118.870,220.292 119.013,220.750 119.086 C 221.208 119.158,221.715 119.243,221.875 119.275 C 222.035 119.307,222.335 119.365,222.542 119.403 C 222.748 119.441,222.917 119.489,222.917 119.509 C 222.917 119.529,223.292 119.561,223.750 119.581 C 224.208 119.600,224.808 119.678,225.082 119.753 C 225.356 119.828,225.844 119.894,226.165 119.899 C 226.487 119.905,226.797 119.975,226.854 120.055 C 226.911 120.135,227.127 120.111,227.333 120.000 C 227.576 119.870,227.746 119.858,227.813 119.965 C 227.957 120.195,235.379 120.173,235.530 119.942 C 235.607 119.824,235.784 119.833,236.084 119.970 C 236.326 120.080,236.595 120.128,236.680 120.075 C 236.916 119.929,238.448 119.686,239.758 119.586 C 240.405 119.536,241.192 119.417,241.508 119.320 C 241.825 119.224,242.421 119.110,242.833 119.068 C 243.246 119.026,243.771 118.942,244.000 118.882 C 244.486 118.754,244.708 118.707,245.500 118.564 C 245.821 118.506,246.158 118.401,246.250 118.332 C 246.342 118.262,246.679 118.155,247.000 118.093 C 247.321 118.031,247.733 117.920,247.917 117.847 C 248.365 117.667,249.415 117.332,249.784 117.252 C 250.267 117.147,252.029 116.493,252.535 116.232 C 252.791 116.100,253.000 116.035,253.000 116.088 C 253.000 116.142,253.206 116.074,253.458 115.939 C 253.710 115.803,254.442 115.450,255.083 115.154 C 255.725 114.858,256.394 114.496,256.570 114.350 C 256.746 114.203,256.836 114.177,256.768 114.292 C 256.645 114.503,258.113 113.786,258.408 113.491 C 258.495 113.404,258.698 113.333,258.858 113.333 C 259.019 113.333,259.214 113.219,259.292 113.080 C 259.370 112.941,259.612 112.793,259.829 112.751 C 260.047 112.709,260.269 112.608,260.321 112.526 C 260.374 112.445,260.746 112.211,261.149 112.007 C 261.551 111.803,262.244 111.380,262.689 111.068 C 263.133 110.756,263.566 110.500,263.651 110.500 C 263.736 110.500,263.831 110.440,263.861 110.367 C 263.892 110.294,264.310 109.982,264.792 109.673 C 265.273 109.363,265.667 109.048,265.667 108.972 C 265.667 108.896,265.760 108.833,265.875 108.833 C 265.990 108.832,266.383 108.553,266.750 108.212 C 267.117 107.871,267.479 107.590,267.555 107.588 C 267.631 107.585,267.790 107.452,267.907 107.292 C 268.024 107.131,268.170 107.000,268.231 107.000 C 268.502 107.000,274.333 101.264,274.333 100.998 C 274.333 100.907,274.446 100.833,274.583 100.833 C 274.812 100.833,274.910 100.630,274.849 100.279 C 274.836 100.204,274.894 100.184,274.978 100.236 C 275.062 100.288,275.242 100.162,275.378 99.957 C 275.515 99.751,275.804 99.388,276.021 99.150 C 276.777 98.322,277.105 97.901,277.214 97.618 C 277.274 97.461,277.400 97.333,277.495 97.333 C 277.589 97.333,277.667 97.221,277.667 97.083 C 277.667 96.946,277.742 96.833,277.833 96.833 C 277.925 96.833,278.000 96.721,278.000 96.583 C 278.000 96.446,278.074 96.333,278.163 96.333 C 278.253 96.333,278.374 96.146,278.431 95.918 C 278.489 95.689,278.603 95.544,278.684 95.594 C 278.766 95.645,278.833 95.604,278.833 95.503 C 278.833 95.402,278.972 95.170,279.143 94.987 C 279.313 94.805,279.594 94.359,279.768 93.996 C 279.941 93.634,280.140 93.336,280.208 93.335 C 280.277 93.334,280.333 93.244,280.333 93.136 C 280.333 93.027,280.489 92.773,280.679 92.570 C 280.869 92.368,281.043 92.101,281.067 91.976 C 281.147 91.552,281.728 90.500,281.882 90.500 C 281.967 90.500,281.993 90.389,281.941 90.254 C 281.890 90.119,281.961 89.945,282.101 89.867 C 282.240 89.789,282.374 89.593,282.397 89.433 C 282.421 89.272,282.514 89.090,282.604 89.028 C 282.694 88.967,282.900 88.617,283.061 88.250 C 283.223 87.883,283.504 87.304,283.686 86.963 C 283.867 86.622,284.007 86.300,283.996 86.249 C 283.985 86.197,284.122 85.839,284.301 85.453 C 284.728 84.531,284.893 84.120,284.918 83.917 C 284.930 83.825,285.091 83.412,285.276 83.000 C 285.848 81.726,286.222 80.604,286.236 80.125 C 286.244 79.873,286.298 79.667,286.357 79.667 C 286.448 79.667,286.606 79.238,286.757 78.583 C 286.778 78.492,286.922 77.985,287.077 77.456 C 287.232 76.928,287.386 76.272,287.421 75.999 C 287.456 75.725,287.557 75.238,287.645 74.917 C 287.734 74.596,287.766 74.333,287.716 74.333 C 287.666 74.333,287.702 74.240,287.795 74.125 C 287.889 74.010,287.992 73.467,288.024 72.917 C 288.057 72.367,288.139 71.875,288.207 71.824 C 288.607 71.526,288.970 60.727,288.667 58.167 C 288.586 57.479,288.475 56.320,288.422 55.590 C 288.368 54.861,288.270 54.223,288.204 54.174 C 288.081 54.082,288.033 53.739,287.987 52.625 C 287.972 52.281,287.890 52.000,287.804 52.000 C 287.718 52.000,287.694 51.924,287.751 51.831 C 287.809 51.738,287.730 51.232,287.576 50.706 C 287.422 50.180,287.295 49.581,287.294 49.375 C 287.293 49.169,287.228 49.000,287.151 49.000 C 287.074 49.000,287.051 48.895,287.100 48.767 C 287.149 48.639,287.109 48.484,287.011 48.424 C 286.913 48.363,286.832 48.112,286.831 47.865 C 286.827 47.160,285.392 42.833,285.162 42.833 C 285.113 42.833,285.058 42.658,285.040 42.444 C 285.023 42.229,284.894 41.836,284.755 41.569 C 284.616 41.302,284.502 40.977,284.501 40.846 C 284.500 40.716,284.385 40.483,284.245 40.328 C 284.104 40.173,283.956 39.872,283.915 39.660 C 283.875 39.448,283.746 39.214,283.629 39.140 C 283.512 39.066,283.482 39.004,283.561 39.003 C 283.640 39.001,283.582 38.813,283.432 38.583 C 283.282 38.354,283.195 38.167,283.239 38.167 C 283.330 38.167,282.726 36.991,281.998 35.750 C 281.729 35.292,281.355 34.598,281.167 34.208 C 280.979 33.819,280.752 33.500,280.663 33.500 C 280.573 33.500,280.500 33.350,280.500 33.167 C 280.500 32.983,280.430 32.833,280.345 32.833 C 280.259 32.833,280.139 32.674,280.077 32.480 C 280.015 32.286,279.744 31.817,279.474 31.439 C 279.204 31.060,278.733 30.375,278.428 29.917 C 277.931 29.172,277.684 28.859,276.754 27.792 C 276.614 27.631,276.500 27.428,276.500 27.339 C 276.500 27.251,276.348 27.097,276.162 26.998 C 275.976 26.898,275.861 26.757,275.906 26.684 C 275.951 26.611,275.203 25.736,274.244 24.740 C 273.285 23.744,272.500 22.884,272.500 22.829 C 272.500 22.702,271.598 21.833,271.466 21.833 C 271.411 21.833,270.806 21.271,270.121 20.583 C 269.436 19.896,268.809 19.331,268.729 19.328 C 268.649 19.325,268.324 19.063,268.008 18.745 C 267.692 18.427,267.377 18.167,267.310 18.167 C 267.242 18.167,266.945 17.945,266.648 17.674 C 266.352 17.404,266.061 17.212,266.001 17.249 C 265.942 17.286,265.781 17.189,265.644 17.033 C 265.508 16.877,265.145 16.563,264.838 16.333 C 264.531 16.104,264.196 15.842,264.092 15.750 C 263.826 15.515,263.322 15.199,262.833 14.961 C 262.604 14.849,262.357 14.662,262.283 14.545 C 262.210 14.429,262.085 14.333,262.006 14.333 C 261.927 14.333,261.472 14.076,260.996 13.762 C 260.487 13.427,260.016 13.232,259.856 13.289 C 259.706 13.343,259.639 13.325,259.707 13.250 C 259.859 13.083,259.304 12.674,258.792 12.575 C 258.586 12.536,258.394 12.432,258.365 12.345 C 258.336 12.257,257.961 12.022,257.531 11.822 C 255.618 10.931,254.380 10.365,253.917 10.168 C 252.607 9.612,251.500 9.199,251.500 9.267 C 251.500 9.308,251.269 9.222,250.986 9.076 C 250.336 8.740,248.291 8.079,247.417 7.923 C 247.050 7.857,246.675 7.746,246.583 7.675 C 246.424 7.552,245.470 7.339,244.742 7.263 C 244.554 7.243,244.299 7.165,244.176 7.089 C 244.053 7.013,243.757 6.928,243.518 6.899 C 242.166 6.740,241.828 6.683,241.679 6.591 C 241.526 6.497,240.636 6.380,239.144 6.259 C 238.810 6.231,238.463 6.163,238.372 6.107 C 237.983 5.867,228.527 5.529,228.308 5.747 M174.623 63.952 C 174.590 64.483,174.563 64.092,174.562 63.083 C 174.562 62.075,174.589 61.641,174.623 62.119 C 174.656 62.597,174.657 63.422,174.623 63.952 " stroke="none" fill="#e43444" fill-rule="evenodd"></path><path id="path2" d="M217.250 7.500 C 217.040 7.590,217.009 7.643,217.167 7.643 C 217.304 7.643,217.567 7.579,217.750 7.500 C 217.960 7.410,217.991 7.357,217.833 7.357 C 217.696 7.357,217.433 7.421,217.250 7.500 M174.562 63.083 C 174.563 64.092,174.590 64.483,174.623 63.952 C 174.657 63.422,174.656 62.597,174.623 62.119 C 174.589 61.641,174.562 62.075,174.562 63.083 " stroke="none" fill="#ec3444" fill-rule="evenodd"></path><path id="path3" d="" stroke="none" fill="#f0cc100" fill-rule="evenodd"></path><path id="path4" d="" stroke="none" fill="#f064a4" fill-rule="evenodd"></path></g></svg>